<svg width="24" height="24" viewBox="0 0 24 24" fill="none" xmlns="http://www.w3.org/2000/svg">
<path d="M11.5 15.75C13.5711 15.75 15.25 14.0711 15.25 12C15.25 9.92893 13.5711 8.25 11.5 8.25C9.42893 8.25 7.75 9.92893 7.75 12C7.75 14.0711 9.42893 15.75 11.5 15.75Z" stroke="#121331" stroke-width="1.5" stroke-miterlimit="10"/>
<path d="M16.248 20.219C14.9759 20.8778 13.5314 21.25 12 21.25C6.89137 21.25 2.75 17.1086 2.75 12C2.75 6.89137 6.89137 2.75 12 2.75C17.1086 2.75 21.25 6.89137 21.25 12C21.25 12.8683 21.1304 13.7086 20.9067 14.5054C20.5948 15.6166 19.4936 16.2498 18.3394 16.2498V16.2498C16.6332 16.2498 15.25 14.8666 15.25 13.1604V8.22465" stroke="#121331" stroke-width="1.5" stroke-linecap="round" stroke-linejoin="round"/>
</svg>
