<?xml version="1.0" standalone="no"?>
<!DOCTYPE svg PUBLIC "-//W3C//DTD SVG 20010904//EN"
 "http://www.w3.org/TR/2001/REC-SVG-20010904/DTD/svg10.dtd">
<svg version="1.0" xmlns="http://www.w3.org/2000/svg"
 width="3013.000000pt" height="2733.000000pt" viewBox="0 0 3013.000000 2733.000000"
 preserveAspectRatio="xMidYMid meet">

<g transform="translate(0.000000,2733.000000) scale(0.100000,-0.100000)"
fill="#000000" stroke="none">
<path d="M19368 18423 c12 -2 30 -2 40 0 9 3 -1 5 -23 4 -22 0 -30 -2 -17 -4z"/>
<path d="M19398 18403 c6 -2 18 -2 25 0 6 3 1 5 -13 5 -14 0 -19 -2 -12 -5z"/>
<path d="M19350 18380 c31 -5 37 -8 20 -10 -17 -2 -11 -5 20 -10 40 -6 35 -7
-40 -10 l-85 -3 65 -7 c61 -6 62 -7 20 -10 l-45 -3 45 -7 c39 -6 35 -7 -40
-10 -75 -3 -79 -4 -40 -10 31 -5 37 -8 20 -10 -17 -2 -11 -5 20 -10 40 -6 35
-7 -40 -10 l-85 -3 65 -7 c61 -6 62 -7 20 -10 l-45 -3 45 -7 c39 -6 35 -7 -40
-10 -75 -3 -79 -4 -40 -10 31 -5 37 -8 20 -10 -17 -2 -11 -5 20 -10 40 -6 35
-7 -40 -10 l-85 -3 65 -7 c61 -6 62 -7 20 -10 l-45 -3 45 -7 c39 -6 35 -7 -40
-10 -75 -3 -79 -4 -40 -10 31 -5 37 -8 20 -10 -17 -2 -11 -5 20 -10 40 -6 35
-7 -40 -10 l-85 -3 65 -7 c61 -6 62 -7 20 -10 l-45 -3 45 -7 c39 -6 35 -7 -40
-10 -75 -3 -79 -4 -40 -10 31 -5 37 -8 20 -10 -17 -2 -11 -5 20 -10 40 -6 35
-7 -40 -10 l-85 -3 65 -7 c61 -6 62 -7 20 -10 l-45 -3 45 -7 c39 -6 35 -7 -40
-10 -75 -3 -79 -4 -40 -10 31 -5 37 -8 20 -10 -17 -2 -11 -5 20 -10 40 -6 35
-7 -40 -10 l-85 -3 65 -7 c61 -6 62 -7 20 -10 l-45 -3 45 -7 c39 -6 35 -7 -40
-10 -75 -3 -79 -4 -40 -10 31 -5 37 -8 20 -10 -17 -2 -11 -5 20 -10 40 -6 35
-7 -40 -10 l-85 -3 65 -7 c61 -6 62 -7 20 -10 l-45 -3 45 -7 c39 -6 35 -7 -40
-10 -75 -3 -79 -4 -40 -10 31 -5 37 -8 20 -10 -17 -2 -11 -5 20 -10 40 -6 35
-7 -40 -10 l-85 -3 65 -7 c61 -6 62 -7 20 -10 l-45 -3 45 -7 c39 -6 35 -7 -40
-10 -75 -3 -79 -4 -40 -10 31 -5 37 -8 20 -10 -17 -2 -11 -5 20 -10 l45 -7
-60 -3 c-57 -3 -58 -3 -20 -10 l40 -6 -35 -6 -35 -5 35 -3 c33 -2 34 -3 8 -9
l-27 -6 18 -38 c9 -20 21 -34 25 -30 4 4 5 1 1 -7 -3 -9 1777 -3582 4070
-8169 2242 -4485 4074 -8155 4073 -8157 -2 -1 -2551 1695 -5665 3769 l-5662
3772 -1 2653 0 2652 -497 -2 c-274 -1 -464 -4 -423 -8 l75 -6 -75 -4 c-41 -3
67 -7 240 -10 l315 -5 -312 -3 c-271 -2 -313 -4 -313 -17 0 -8 6 -15 13 -15 9
0 9 -2 0 -8 -10 -7 -13 -545 -15 -2616 l-3 -2609 -3684 -2458 c-2027 -1353
-3688 -2464 -3692 -2470 -3 -6 -10 -10 -14 -9 -4 1 -18 -7 -31 -19 -13 -11
-27 -21 -32 -22 -4 -1 -6 -5 -4 -11 1 -5 -2 -7 -7 -4 -5 4 -15 1 -23 -6 -7 -7
-26 -20 -42 -28 l-29 -15 34 -6 c31 -6 30 -7 -16 -9 -45 -2 -47 -3 -20 -10 28
-7 27 -8 -15 -11 -42 -2 -40 -3 20 -9 l65 -7 -65 -3 c-65 -3 -65 -3 -20 -10
l45 -7 -45 -3 -45 -3 45 -7 c45 -7 45 -7 -20 -10 -65 -3 -65 -3 -20 -10 31 -5
37 -8 20 -10 -17 -2 -11 -5 20 -10 45 -7 45 -7 -20 -10 -65 -3 -65 -3 -20 -10
31 -5 37 -8 20 -10 -17 -2 -11 -5 20 -10 39 -6 35 -7 -40 -10 -75 -3 -79 -4
-40 -10 31 -5 37 -8 20 -10 -17 -2 -11 -5 20 -10 45 -7 45 -7 -20 -10 -65 -3
-65 -3 -20 -10 31 -5 37 -8 20 -10 -17 -2 -11 -5 20 -10 45 -7 45 -7 -20 -10
-65 -3 -65 -3 -20 -10 l45 -7 -45 -3 c-42 -3 -41 -4 20 -10 l65 -7 -65 -3
c-65 -3 -65 -3 -20 -10 l45 -7 -45 -3 -45 -3 45 -7 c45 -7 45 -7 -20 -10 -65
-3 -65 -3 -20 -10 31 -5 37 -8 20 -10 -17 -2 -11 -5 20 -10 45 -7 45 -7 -20
-10 -65 -3 -65 -3 -20 -10 31 -5 37 -8 20 -10 -17 -2 -11 -5 20 -10 39 -6 35
-7 -40 -10 -75 -3 -79 -4 -40 -10 31 -5 37 -8 20 -10 -17 -2 -11 -5 20 -10 45
-7 45 -7 -20 -10 -65 -3 -65 -3 -20 -10 31 -5 37 -8 20 -10 -17 -2 -11 -5 20
-10 45 -7 45 -7 -20 -10 -65 -3 -65 -3 -20 -10 l45 -7 -45 -3 c-42 -3 -41 -4
20 -10 l65 -7 -65 -3 c-65 -3 -65 -3 -20 -10 l45 -7 -45 -3 -45 -3 45 -7 c45
-7 45 -7 -20 -10 -65 -3 -65 -3 -20 -10 31 -5 37 -8 20 -10 -17 -2 -11 -5 20
-10 45 -7 45 -7 -20 -10 -65 -3 -65 -3 -20 -10 31 -5 37 -8 20 -10 -17 -2 -11
-5 20 -10 39 -6 35 -7 -40 -10 -75 -3 -79 -4 -40 -10 31 -5 37 -8 20 -10 -17
-2 -11 -5 20 -10 45 -7 45 -7 -20 -10 -65 -3 -65 -3 -20 -10 31 -5 37 -8 20
-10 -17 -2 -11 -5 20 -10 45 -7 45 -7 -20 -10 -65 -3 -65 -3 -20 -10 l45 -7
-45 -3 c-42 -3 -41 -4 20 -10 l65 -7 -65 -3 c-65 -3 -65 -3 -20 -10 l45 -7
-45 -3 -45 -3 45 -7 c45 -7 45 -7 -20 -10 -65 -3 -65 -3 -20 -10 31 -5 37 -8
20 -10 -17 -2 -11 -5 20 -10 45 -7 45 -7 -20 -10 -65 -3 -65 -3 -20 -10 31 -5
37 -8 20 -10 -17 -2 -11 -5 20 -10 39 -6 35 -7 -40 -10 -75 -3 -79 -4 -40 -10
31 -5 37 -8 20 -10 -17 -2 -11 -5 20 -10 45 -7 45 -7 -20 -10 -65 -3 -65 -3
-20 -10 31 -5 37 -8 20 -10 -17 -2 -11 -5 20 -10 45 -7 45 -7 -20 -10 -65 -3
-65 -3 -20 -10 l45 -7 -45 -3 c-42 -3 -41 -4 20 -10 l65 -7 -65 -3 c-65 -3
-65 -3 -20 -10 l45 -7 -45 -3 -45 -3 45 -7 c45 -7 45 -7 -20 -10 -65 -3 -65
-3 -20 -10 31 -5 37 -8 20 -10 -17 -2 -11 -5 20 -10 45 -7 45 -7 -20 -10 -65
-3 -65 -3 -20 -10 31 -5 37 -8 20 -10 -17 -2 -11 -5 20 -10 39 -6 35 -7 -40
-10 -75 -3 -79 -4 -40 -10 31 -5 37 -8 20 -10 -17 -2 -11 -5 20 -10 45 -7 45
-7 -20 -10 -65 -3 -65 -3 -20 -10 31 -5 37 -8 20 -10 -17 -2 -11 -5 20 -10 45
-7 45 -7 -20 -10 -65 -3 -65 -3 -20 -10 l45 -7 -45 -3 c-42 -3 -41 -4 20 -10
l65 -7 -65 -3 c-65 -3 -65 -3 -20 -10 l45 -7 -45 -3 -45 -3 45 -7 c45 -7 45
-7 -20 -10 -65 -3 -65 -3 -20 -10 31 -5 37 -8 20 -10 -17 -2 -11 -5 20 -10 45
-7 45 -7 -20 -10 -65 -3 -65 -3 -20 -10 31 -5 37 -8 20 -10 -17 -2 -11 -5 20
-10 39 -6 35 -7 -40 -10 -75 -3 -79 -4 -40 -10 31 -5 37 -8 20 -10 -17 -2 -11
-5 20 -10 45 -7 45 -7 -20 -10 -65 -3 -65 -3 -20 -10 31 -5 37 -8 20 -10 -17
-2 -11 -5 20 -10 45 -7 45 -7 -20 -10 -64 -3 -64 -3 -20 -10 l45 -6 -45 -5
-45 -6 51 -1 c38 -2 55 3 72 18 12 11 25 20 30 20 4 0 17 8 28 18 10 10 26 21
34 24 8 3 1893 1258 4189 2788 2296 1530 4180 2784 4187 2787 11 4 10208
-6787 10201 -6794 -2 -2 -3569 -4 -7928 -5 -8633 -3 -11248 -7 -11179 -18 45
-7 45 -7 -20 -10 -65 -3 -65 -3 -20 -10 l45 -7 -45 -3 c-42 -3 -41 -4 20 -10
l65 -7 -65 -3 c-65 -3 -65 -3 -20 -10 l45 -7 -45 -3 -45 -3 45 -7 c45 -7 45
-7 -20 -10 -65 -3 -65 -3 -20 -10 31 -5 37 -8 20 -10 -17 -2 -11 -5 20 -10 45
-7 45 -7 -20 -10 -65 -3 -65 -3 -20 -10 31 -5 37 -8 20 -10 -17 -2 -11 -5 20
-10 39 -6 35 -7 -40 -10 -75 -3 -79 -4 -40 -10 31 -5 37 -8 20 -10 -17 -2 -11
-5 20 -10 45 -7 45 -7 -20 -10 -65 -3 -65 -3 -20 -10 31 -5 37 -8 20 -10 -17
-2 -11 -5 20 -10 45 -7 45 -7 -20 -10 -65 -3 -65 -3 -20 -10 l45 -7 -45 -3
c-42 -3 -41 -4 20 -10 l65 -7 -65 -3 c-65 -3 -65 -3 -20 -10 l45 -7 -45 -3
-45 -3 45 -7 c45 -7 45 -7 -20 -10 -65 -3 -65 -3 -20 -10 31 -5 37 -8 20 -10
-17 -2 -11 -5 20 -10 45 -7 45 -7 -20 -10 -65 -3 -65 -3 -20 -10 31 -5 37 -8
20 -10 -17 -2 -11 -5 20 -10 39 -6 35 -7 -40 -10 -75 -3 -79 -4 -40 -10 31 -5
37 -8 20 -10 -17 -2 -11 -5 20 -10 45 -7 45 -7 -20 -10 -65 -3 -65 -3 -20 -10
31 -5 37 -8 20 -10 -17 -2 -11 -5 20 -10 45 -7 45 -7 -20 -10 -65 -3 -65 -3
-20 -10 l45 -7 -45 -3 c-42 -3 -41 -4 20 -10 l65 -7 -65 -3 c-65 -3 -65 -3
-20 -10 l45 -7 -45 -3 -45 -3 45 -7 c45 -7 45 -7 -20 -10 -65 -3 -65 -3 -20
-10 31 -5 37 -8 20 -10 -17 -2 -11 -5 20 -10 45 -7 45 -7 -20 -10 -65 -3 -65
-3 -20 -10 31 -5 37 -8 20 -10 -17 -2 -11 -5 20 -10 39 -6 35 -7 -40 -10 -75
-3 -79 -4 -40 -10 31 -5 37 -8 20 -10 -17 -2 -11 -5 20 -10 45 -7 45 -7 -20
-10 -65 -3 -65 -3 -20 -10 31 -5 37 -8 20 -10 -17 -2 -11 -5 20 -10 45 -7 45
-7 -20 -10 -65 -3 -65 -3 -20 -10 l45 -7 -45 -3 c-42 -3 -41 -4 20 -10 l65 -7
-65 -3 c-65 -3 -65 -3 -20 -10 l45 -7 -45 -3 -45 -3 45 -7 c45 -7 45 -7 -20
-10 -65 -3 -65 -3 -20 -10 31 -5 37 -8 20 -10 -17 -2 -11 -5 20 -10 45 -7 45
-7 -20 -10 -65 -3 -65 -3 -20 -10 31 -5 37 -8 20 -10 -17 -2 -11 -5 20 -10 39
-6 35 -7 -40 -10 -75 -3 -79 -4 -40 -10 31 -5 37 -8 20 -10 -17 -2 -11 -5 20
-10 45 -7 45 -7 -20 -10 -64 -3 -64 -3 -20 -9 37 -6 40 -8 20 -13 -19 -4 -14
-6 20 -8 42 -3 41 -4 -20 -10 -36 -4 5071 -7 11348 -8 l11414 -2 -4545 9083
c-2500 4995 -4555 9101 -4568 9125 l-23 42 -65 -2 c-64 -1 -64 -1 -21 -8z m77
-66 c-3 -3 -12 -4 -19 -1 -8 3 -5 6 6 6 11 1 17 -2 13 -5z m-80 -80 c-3 -3
-12 -4 -19 -1 -8 3 -5 6 6 6 11 1 17 -2 13 -5z m-80 -80 c-3 -3 -12 -4 -19 -1
-8 3 -5 6 6 6 11 1 17 -2 13 -5z m-80 -80 c-3 -3 -12 -4 -19 -1 -8 3 -5 6 6 6
11 1 17 -2 13 -5z m-80 -80 c-3 -3 -12 -4 -19 -1 -8 3 -5 6 6 6 11 1 17 -2 13
-5z m-80 -80 c-3 -3 -12 -4 -19 -1 -8 3 -5 6 6 6 11 1 17 -2 13 -5z m-80 -80
c-3 -3 -12 -4 -19 -1 -8 3 -5 6 6 6 11 1 17 -2 13 -5z m-80 -80 c-3 -3 -12 -4
-19 -1 -8 3 -5 6 6 6 11 1 17 -2 13 -5z m-80 -80 c-3 -3 -12 -4 -19 -1 -8 3
-5 6 6 6 11 1 17 -2 13 -5z m-4009 -3581 c-10 -2 -28 -2 -40 0 -13 2 -5 4 17
4 22 1 32 -1 23 -4z m49 1 c-3 -3 -12 -4 -19 -1 -8 3 -5 6 6 6 11 1 17 -2 13
-5z m40 0 c-3 -3 -12 -4 -19 -1 -8 3 -5 6 6 6 11 1 17 -2 13 -5z m40 0 c-3 -3
-12 -4 -19 -1 -8 3 -5 6 6 6 11 1 17 -2 13 -5z m40 0 c-3 -3 -12 -4 -19 -1 -8
3 -5 6 6 6 11 1 17 -2 13 -5z m40 0 c-3 -3 -12 -4 -19 -1 -8 3 -5 6 6 6 11 1
17 -2 13 -5z m40 0 c-3 -3 -12 -4 -19 -1 -8 3 -5 6 6 6 11 1 17 -2 13 -5z m40
0 c-3 -3 -12 -4 -19 -1 -8 3 -5 6 6 6 11 1 17 -2 13 -5z m40 0 c-3 -3 -12 -4
-19 -1 -8 3 -5 6 6 6 11 1 17 -2 13 -5z m80 0 c-3 -3 -12 -4 -19 -1 -8 3 -5 6
6 6 11 1 17 -2 13 -5z m71 -21 c-10 -2 -28 -2 -40 0 -13 2 -5 4 17 4 22 1 32
-1 23 -4z m49 1 c-3 -3 -12 -4 -19 -1 -8 3 -5 6 6 6 11 1 17 -2 13 -5z m40 0
c-3 -3 -12 -4 -19 -1 -8 3 -5 6 6 6 11 1 17 -2 13 -5z m40 0 c-3 -3 -12 -4
-19 -1 -8 3 -5 6 6 6 11 1 17 -2 13 -5z m40 0 c-3 -3 -12 -4 -19 -1 -8 3 -5 6
6 6 11 1 17 -2 13 -5z m40 0 c-3 -3 -12 -4 -19 -1 -8 3 -5 6 6 6 11 1 17 -2
13 -5z m40 0 c-3 -3 -12 -4 -19 -1 -8 3 -5 6 6 6 11 1 17 -2 13 -5z m40 0 c-3
-3 -12 -4 -19 -1 -8 3 -5 6 6 6 11 1 17 -2 13 -5z m-920 -40 c-3 -3 -12 -4
-19 -1 -8 3 -5 6 6 6 11 1 17 -2 13 -5z m40 0 c-3 -3 -12 -4 -19 -1 -8 3 -5 6
6 6 11 1 17 -2 13 -5z m40 0 c-3 -3 -12 -4 -19 -1 -8 3 -5 6 6 6 11 1 17 -2
13 -5z m80 0 c-3 -3 -12 -4 -19 -1 -8 3 -5 6 6 6 11 1 17 -2 13 -5z m-7720
-10360 c-3 -3 -12 -4 -19 -1 -8 3 -5 6 6 6 11 1 17 -2 13 -5z m-80 -240 c-3
-3 -12 -4 -19 -1 -8 3 -5 6 6 6 11 1 17 -2 13 -5z m-80 -240 c-3 -3 -12 -4
-19 -1 -8 3 -5 6 6 6 11 1 17 -2 13 -5z m-80 -240 c-3 -3 -12 -4 -19 -1 -8 3
-5 6 6 6 11 1 17 -2 13 -5z m-80 -240 c-3 -3 -12 -4 -19 -1 -8 3 -5 6 6 6 11
1 17 -2 13 -5z m-80 -240 c-3 -3 -12 -4 -19 -1 -8 3 -5 6 6 6 11 1 17 -2 13
-5z m-480 -1440 c-3 -3 -12 -4 -19 -1 -8 3 -5 6 6 6 11 1 17 -2 13 -5z m-80
-240 c-3 -3 -12 -4 -19 -1 -8 3 -5 6 6 6 11 1 17 -2 13 -5z m-80 -240 c-3 -3
-12 -4 -19 -1 -8 3 -5 6 6 6 11 1 17 -2 13 -5z m-80 -240 c-3 -3 -12 -4 -19
-1 -8 3 -5 6 6 6 11 1 17 -2 13 -5z"/>
<path d="M15118 14223 c7 -3 16 -2 19 1 4 3 -2 6 -13 5 -11 0 -14 -3 -6 -6z"/>
<path d="M15198 14223 c7 -3 16 -2 19 1 4 3 -2 6 -13 5 -11 0 -14 -3 -6 -6z"/>
<path d="M15238 14223 c7 -3 16 -2 19 1 4 3 -2 6 -13 5 -11 0 -14 -3 -6 -6z"/>
<path d="M15278 14223 c7 -3 16 -2 19 1 4 3 -2 6 -13 5 -11 0 -14 -3 -6 -6z"/>
<path d="M15318 14223 c7 -3 16 -2 19 1 4 3 -2 6 -13 5 -11 0 -14 -3 -6 -6z"/>
<path d="M15358 14223 c7 -3 16 -2 19 1 4 3 -2 6 -13 5 -11 0 -14 -3 -6 -6z"/>
<path d="M15398 14223 c7 -3 16 -2 19 1 4 3 -2 6 -13 5 -11 0 -14 -3 -6 -6z"/>
<path d="M15438 14223 c7 -3 16 -2 19 1 4 3 -2 6 -13 5 -11 0 -14 -3 -6 -6z"/>
<path d="M15478 14223 c7 -3 16 -2 19 1 4 3 -2 6 -13 5 -11 0 -14 -3 -6 -6z"/>
<path d="M15523 14223 c9 -2 23 -2 30 0 6 3 -1 5 -18 5 -16 0 -22 -2 -12 -5z"/>
<path d="M14638 14183 c7 -3 16 -2 19 1 4 3 -2 6 -13 5 -11 0 -14 -3 -6 -6z"/>
<path d="M14718 14183 c7 -3 16 -2 19 1 4 3 -2 6 -13 5 -11 0 -14 -3 -6 -6z"/>
<path d="M14758 14183 c7 -3 16 -2 19 1 4 3 -2 6 -13 5 -11 0 -14 -3 -6 -6z"/>
<path d="M14798 14183 c7 -3 16 -2 19 1 4 3 -2 6 -13 5 -11 0 -14 -3 -6 -6z"/>
<path d="M14838 14183 c7 -3 16 -2 19 1 4 3 -2 6 -13 5 -11 0 -14 -3 -6 -6z"/>
<path d="M14878 14183 c7 -3 16 -2 19 1 4 3 -2 6 -13 5 -11 0 -14 -3 -6 -6z"/>
<path d="M14918 14183 c7 -3 16 -2 19 1 4 3 -2 6 -13 5 -11 0 -14 -3 -6 -6z"/>
<path d="M14958 14183 c7 -3 16 -2 19 1 4 3 -2 6 -13 5 -11 0 -14 -3 -6 -6z"/>
<path d="M14998 14183 c7 -3 16 -2 19 1 4 3 -2 6 -13 5 -11 0 -14 -3 -6 -6z"/>
<path d="M15048 14183 c12 -2 30 -2 40 0 9 3 -1 5 -23 4 -22 0 -30 -2 -17 -4z"/>
<path d="M15223 14183 c65 -2 168 -2 230 0 62 1 9 3 -118 3 -126 0 -177 -2
-112 -3z"/>
<path d="M15118 14163 c7 -3 16 -2 19 1 4 3 -2 6 -13 5 -11 0 -14 -3 -6 -6z"/>
<path d="M15198 14163 c7 -3 16 -2 19 1 4 3 -2 6 -13 5 -11 0 -14 -3 -6 -6z"/>
<path d="M15238 14163 c7 -3 16 -2 19 1 4 3 -2 6 -13 5 -11 0 -14 -3 -6 -6z"/>
<path d="M15278 14163 c7 -3 16 -2 19 1 4 3 -2 6 -13 5 -11 0 -14 -3 -6 -6z"/>
<path d="M15318 14163 c7 -3 16 -2 19 1 4 3 -2 6 -13 5 -11 0 -14 -3 -6 -6z"/>
<path d="M15358 14163 c7 -3 16 -2 19 1 4 3 -2 6 -13 5 -11 0 -14 -3 -6 -6z"/>
<path d="M15398 14163 c7 -3 16 -2 19 1 4 3 -2 6 -13 5 -11 0 -14 -3 -6 -6z"/>
<path d="M15438 14163 c7 -3 16 -2 19 1 4 3 -2 6 -13 5 -11 0 -14 -3 -6 -6z"/>
<path d="M15478 14163 c7 -3 16 -2 19 1 4 3 -2 6 -13 5 -11 0 -14 -3 -6 -6z"/>
<path d="M15523 14163 c9 -2 23 -2 30 0 6 3 -1 5 -18 5 -16 0 -22 -2 -12 -5z"/>
<path d="M14880 14140 l315 -5 -245 -5 c-213 -5 -189 -6 183 -8 374 -2 427 0
427 13 0 13 -61 15 -497 13 -477 -2 -485 -3 -183 -8z m378 -7 c-10 -2 -28 -2
-40 0 -13 2 -5 4 17 4 22 1 32 -1 23 -4z m49 1 c-3 -3 -12 -4 -19 -1 -8 3 -5
6 6 6 11 1 17 -2 13 -5z m40 0 c-3 -3 -12 -4 -19 -1 -8 3 -5 6 6 6 11 1 17 -2
13 -5z m40 0 c-3 -3 -12 -4 -19 -1 -8 3 -5 6 6 6 11 1 17 -2 13 -5z m40 0 c-3
-3 -12 -4 -19 -1 -8 3 -5 6 6 6 11 1 17 -2 13 -5z m40 0 c-3 -3 -12 -4 -19 -1
-8 3 -5 6 6 6 11 1 17 -2 13 -5z m40 0 c-3 -3 -12 -4 -19 -1 -8 3 -5 6 6 6 11
1 17 -2 13 -5z m40 0 c-3 -3 -12 -4 -19 -1 -8 3 -5 6 6 6 11 1 17 -2 13 -5z"/>
<path d="M14598 14123 c7 -3 16 -2 19 1 4 3 -2 6 -13 5 -11 0 -14 -3 -6 -6z"/>
<path d="M14648 14123 c12 -2 30 -2 40 0 9 3 -1 5 -23 4 -22 0 -30 -2 -17 -4z"/>
<path d="M6838 3463 c7 -3 16 -2 19 1 4 3 -2 6 -13 5 -11 0 -14 -3 -6 -6z"/>
<path d="M4198 3263 c6 -2 18 -2 25 0 6 3 1 5 -13 5 -14 0 -19 -2 -12 -5z"/>
<path d="M4163 3223 c9 -2 25 -2 35 0 9 3 1 5 -18 5 -19 0 -27 -2 -17 -5z"/>
<path d="M6758 3223 c7 -3 16 -2 19 1 4 3 -2 6 -13 5 -11 0 -14 -3 -6 -6z"/>
<path d="M4128 3183 c12 -2 32 -2 45 0 12 2 2 4 -23 4 -25 0 -35 -2 -22 -4z"/>
<path d="M4158 3163 c7 -3 16 -2 19 1 4 3 -2 6 -13 5 -11 0 -14 -3 -6 -6z"/>
<path d="M4093 3143 c15 -2 39 -2 55 0 15 2 2 4 -28 4 -30 0 -43 -2 -27 -4z"/>
<path d="M4123 3123 c9 -2 23 -2 30 0 6 3 -1 5 -18 5 -16 0 -22 -2 -12 -5z"/>
<path d="M4070 3101 c37 -6 40 -8 20 -13 -21 -4 -18 -6 11 -7 25 -1 39 4 43
14 4 12 -5 15 -57 13 -61 -1 -61 -1 -17 -7z"/>
<path d="M4050 3060 c61 -6 62 -7 20 -10 l-45 -3 45 -7 c39 -6 35 -7 -40 -10
-75 -3 -79 -4 -40 -10 31 -5 37 -8 20 -10 -17 -2 -11 -5 20 -10 40 -6 35 -7
-40 -10 l-85 -3 65 -7 c61 -6 62 -7 20 -10 l-45 -3 45 -7 c39 -6 35 -7 -40
-10 -75 -3 -79 -4 -40 -10 31 -5 37 -8 20 -10 -17 -2 -11 -5 20 -10 40 -6 35
-7 -40 -10 l-85 -3 65 -7 c61 -6 62 -7 20 -10 l-45 -3 45 -7 c39 -6 35 -7 -40
-10 -75 -3 -79 -4 -40 -10 31 -5 37 -8 20 -10 -17 -2 -11 -5 20 -10 40 -6 35
-7 -40 -10 l-85 -3 65 -7 c61 -6 62 -7 20 -10 l-45 -3 45 -7 c39 -6 35 -7 -40
-10 -75 -3 -79 -4 -40 -10 31 -5 37 -8 20 -10 -17 -2 -11 -5 20 -10 40 -6 35
-7 -40 -10 l-85 -3 65 -7 c61 -6 62 -7 20 -10 l-45 -3 45 -7 c39 -6 35 -7 -40
-10 -75 -3 -79 -4 -40 -10 31 -5 37 -8 20 -10 -17 -2 -11 -5 20 -10 40 -6 35
-7 -40 -10 l-85 -3 65 -7 c61 -6 62 -7 20 -10 l-45 -3 45 -7 c39 -6 35 -7 -40
-10 -75 -3 -79 -4 -40 -10 31 -5 37 -8 20 -10 -17 -2 -11 -5 20 -10 40 -6 35
-7 -40 -10 l-85 -3 65 -7 c61 -6 62 -7 20 -10 l-45 -3 45 -7 c39 -6 35 -7 -40
-10 -75 -3 -79 -4 -40 -10 31 -5 37 -8 20 -10 -17 -2 -11 -5 20 -10 40 -6 35
-7 -40 -10 l-85 -3 65 -7 c61 -6 62 -7 20 -10 l-45 -3 45 -7 c39 -6 35 -7 -40
-10 -75 -3 -79 -4 -40 -10 31 -5 37 -8 20 -10 -17 -2 -11 -5 20 -10 40 -6 35
-7 -40 -10 l-85 -3 65 -7 c61 -6 62 -7 20 -10 l-45 -3 45 -7 c39 -6 35 -7 -40
-10 -75 -3 -79 -4 -40 -10 31 -5 37 -8 20 -10 -17 -2 -11 -5 20 -10 40 -6 35
-7 -40 -10 l-85 -3 65 -7 c61 -6 62 -7 20 -10 l-45 -3 45 -7 c39 -6 35 -7 -40
-10 -75 -3 -79 -4 -40 -10 31 -5 37 -8 20 -10 -17 -2 -11 -5 20 -10 40 -6 35
-7 -40 -10 l-85 -3 65 -7 c61 -6 62 -7 20 -10 l-45 -3 45 -7 c39 -6 35 -7 -40
-10 -75 -3 -79 -4 -40 -10 31 -5 37 -8 20 -10 -17 -2 -11 -5 20 -10 40 -6 35
-7 -40 -10 l-85 -3 65 -7 c61 -6 62 -7 20 -10 l-45 -3 45 -7 c39 -6 35 -7 -40
-10 -75 -3 -79 -4 -40 -10 31 -5 37 -8 20 -10 -17 -2 -11 -5 20 -10 40 -6 35
-7 -40 -10 l-85 -3 65 -7 c61 -6 62 -7 20 -10 l-45 -3 45 -7 c39 -6 35 -7 -40
-10 -75 -3 -79 -4 -40 -10 31 -5 37 -8 20 -10 -17 -2 -11 -5 20 -10 40 -6 35
-7 -40 -10 l-85 -3 65 -7 c61 -6 62 -7 20 -10 l-45 -3 45 -7 c39 -6 35 -7 -40
-10 -75 -3 -79 -4 -40 -10 31 -5 37 -8 20 -10 -17 -2 -11 -5 20 -10 40 -6 35
-7 -40 -10 l-85 -3 65 -7 c61 -6 62 -7 20 -10 l-45 -3 45 -7 c39 -6 35 -7 -40
-10 -75 -3 -79 -4 -40 -10 31 -5 37 -8 20 -10 -17 -2 -11 -5 20 -10 40 -6 35
-7 -40 -10 l-85 -3 65 -7 c61 -6 62 -7 20 -10 l-45 -3 45 -7 c39 -6 35 -7 -40
-10 -75 -3 -79 -4 -40 -10 31 -5 37 -8 20 -10 -17 -2 -11 -5 20 -10 40 -6 35
-7 -40 -10 l-85 -3 65 -7 c61 -6 62 -7 20 -10 l-45 -3 45 -7 c39 -6 35 -7 -40
-10 -75 -3 -79 -4 -40 -10 31 -5 37 -8 20 -10 -17 -2 -11 -5 20 -10 40 -6 35
-7 -40 -10 l-85 -3 65 -7 c61 -6 62 -7 20 -10 l-45 -3 45 -7 c39 -6 35 -7 -40
-10 -75 -3 -79 -4 -40 -10 31 -5 37 -8 20 -10 -17 -2 -11 -5 20 -10 40 -6 35
-7 -40 -10 l-85 -3 65 -7 c61 -6 62 -7 20 -10 l-45 -3 45 -7 c39 -6 35 -7 -40
-10 -75 -3 -79 -4 -40 -10 31 -5 37 -8 20 -10 -17 -2 -11 -5 20 -10 40 -6 35
-7 -40 -10 l-85 -3 65 -7 c61 -6 62 -7 20 -10 l-45 -3 45 -7 c39 -6 35 -7 -40
-10 -75 -3 -79 -4 -40 -10 31 -5 37 -8 20 -10 -17 -2 -11 -5 20 -10 40 -6 35
-7 -40 -10 l-85 -3 65 -7 c61 -6 62 -7 20 -10 l-45 -3 45 -7 c39 -6 35 -7 -40
-10 -75 -3 -79 -4 -40 -10 31 -5 37 -8 20 -10 -17 -2 -11 -5 20 -10 40 -6 35
-7 -40 -10 l-85 -3 65 -7 c61 -6 62 -7 20 -10 l-45 -3 45 -7 c39 -6 35 -7 -40
-10 -75 -3 -79 -4 -40 -10 31 -5 37 -8 20 -10 -17 -2 -11 -5 20 -10 40 -6 35
-7 -40 -10 l-85 -3 65 -7 c61 -6 62 -7 20 -10 l-45 -3 45 -7 c39 -6 35 -7 -40
-10 -75 -3 -79 -4 -40 -10 31 -5 37 -8 20 -10 -17 -2 -11 -5 20 -10 40 -6 35
-7 -40 -10 l-85 -3 65 -7 c61 -6 62 -7 20 -10 l-45 -3 45 -7 c39 -6 35 -7 -40
-10 -75 -3 -79 -4 -40 -10 31 -5 37 -8 20 -10 -17 -2 -11 -5 20 -10 40 -6 35
-7 -40 -10 l-85 -3 65 -7 c61 -6 62 -7 20 -10 l-45 -3 45 -7 c41 -6 37 -7 -35
-10 -68 -2 -74 -4 -40 -10 31 -6 34 -8 15 -10 -17 -2 -11 -5 20 -10 43 -7 42
-7 -25 -10 l-70 -3 50 -7 50 -7 -45 -3 -45 -3 45 -7 45 -7 -60 -2 c-44 -2 -55
-5 -40 -11 19 -8 18 -9 -5 -11 -16 -1 -8 -5 20 -9 l45 -7 -50 -3 c-45 -2 -47
-3 -20 -10 l30 -8 -35 -2 -35 -3 35 -7 35 -7 -38 -2 c-23 0 -36 -5 -32 -11 3
-6 0 -10 -7 -11 -7 -1 -2 -5 12 -9 l25 -8 -28 -1 c-16 -1 -26 -5 -22 -11 3 -5
0 -10 -7 -10 -9 0 -9 -3 2 -10 13 -8 12 -10 -4 -10 -11 0 -17 -3 -13 -6 3 -4
-1 -13 -9 -21 -8 -8 -12 -19 -9 -24 4 -5 0 -9 -7 -9 -9 0 -9 -3 2 -10 13 -8
12 -10 -3 -10 -10 0 -16 -4 -13 -9 4 -5 2 -11 -3 -13 -5 -1 -11 -10 -13 -18
-2 -8 -6 -17 -9 -20 -12 -10 -290 -572 -281 -569 5 2 378 249 829 549 l820
545 382 763 c210 420 378 768 375 774 -4 6 -3 8 3 5 12 -8 46 61 37 75 -4 6
-2 8 3 5 13 -8 26 20 16 36 -3 7 -3 9 2 5 4 -4 22 21 40 56 52 104 54 96 -28
94 l-72 -1 65 -7z m17 -106 c-3 -3 -12 -4 -19 -1 -8 3 -5 6 6 6 11 1 17 -2 13
-5z m-80 -80 c-3 -3 -12 -4 -19 -1 -8 3 -5 6 6 6 11 1 17 -2 13 -5z m-80 -80
c-3 -3 -12 -4 -19 -1 -8 3 -5 6 6 6 11 1 17 -2 13 -5z m-80 -80 c-3 -3 -12 -4
-19 -1 -8 3 -5 6 6 6 11 1 17 -2 13 -5z m-80 -80 c-3 -3 -12 -4 -19 -1 -8 3
-5 6 6 6 11 1 17 -2 13 -5z m-80 -80 c-3 -3 -12 -4 -19 -1 -8 3 -5 6 6 6 11 1
17 -2 13 -5z m-80 -80 c-3 -3 -12 -4 -19 -1 -8 3 -5 6 6 6 11 1 17 -2 13 -5z
m-80 -80 c-3 -3 -12 -4 -19 -1 -8 3 -5 6 6 6 11 1 17 -2 13 -5z m-80 -80 c-3
-3 -12 -4 -19 -1 -8 3 -5 6 6 6 11 1 17 -2 13 -5z m-80 -80 c-3 -3 -12 -4 -19
-1 -8 3 -5 6 6 6 11 1 17 -2 13 -5z m-80 -80 c-3 -3 -12 -4 -19 -1 -8 3 -5 6
6 6 11 1 17 -2 13 -5z m-80 -80 c-3 -3 -12 -4 -19 -1 -8 3 -5 6 6 6 11 1 17
-2 13 -5z m-80 -80 c-3 -3 -12 -4 -19 -1 -8 3 -5 6 6 6 11 1 17 -2 13 -5z
m-80 -80 c-3 -3 -12 -4 -19 -1 -8 3 -5 6 6 6 11 1 17 -2 13 -5z m-80 -80 c-3
-3 -12 -4 -19 -1 -8 3 -5 6 6 6 11 1 17 -2 13 -5z m-80 -80 c-3 -3 -12 -4 -19
-1 -8 3 -5 6 6 6 11 1 17 -2 13 -5z m-80 -80 c-3 -3 -12 -4 -19 -1 -8 3 -5 6
6 6 11 1 17 -2 13 -5z m-80 -80 c-3 -3 -12 -4 -19 -1 -8 3 -5 6 6 6 11 1 17
-2 13 -5z m-80 -80 c-3 -3 -12 -4 -19 -1 -8 3 -5 6 6 6 11 1 17 -2 13 -5z
m-80 -80 c-3 -3 -12 -4 -19 -1 -8 3 -5 6 6 6 11 1 17 -2 13 -5z m-80 -80 c-3
-3 -12 -4 -19 -1 -8 3 -5 6 6 6 11 1 17 -2 13 -5z m-80 -80 c-3 -3 -12 -4 -19
-1 -8 3 -5 6 6 6 11 1 17 -2 13 -5z m-80 -80 c-3 -3 -12 -4 -19 -1 -8 3 -5 6
6 6 11 1 17 -2 13 -5z m-80 -80 c-3 -3 -12 -4 -19 -1 -8 3 -5 6 6 6 11 1 17
-2 13 -5z m-80 -80 c-3 -3 -12 -4 -19 -1 -8 3 -5 6 6 6 11 1 17 -2 13 -5z
m-80 -80 c-3 -3 -12 -4 -19 -1 -8 3 -5 6 6 6 11 1 17 -2 13 -5z m-80 -80 c-3
-3 -12 -4 -19 -1 -8 3 -5 6 6 6 11 1 17 -2 13 -5z"/>
<path d="M6678 2983 c7 -3 16 -2 19 1 4 3 -2 6 -13 5 -11 0 -14 -3 -6 -6z"/>
<path d="M6598 2743 c7 -3 16 -2 19 1 4 3 -2 6 -13 5 -11 0 -14 -3 -6 -6z"/>
<path d="M6518 2503 c7 -3 16 -2 19 1 4 3 -2 6 -13 5 -11 0 -14 -3 -6 -6z"/>
<path d="M6438 2263 c7 -3 16 -2 19 1 4 3 -2 6 -13 5 -11 0 -14 -3 -6 -6z"/>
<path d="M6488 2263 c12 -2 30 -2 40 0 9 3 -1 5 -23 4 -22 0 -30 -2 -17 -4z"/>
<path d="M6478 2243 c6 -2 18 -2 25 0 6 3 1 5 -13 5 -14 0 -19 -2 -12 -5z"/>
<path d="M6443 2223 c9 -2 23 -2 30 0 6 3 -1 5 -18 5 -16 0 -22 -2 -12 -5z"/>
<path d="M6038 1063 c7 -3 16 -2 19 1 4 3 -2 6 -13 5 -11 0 -14 -3 -6 -6z"/>
<path d="M5958 823 c7 -3 16 -2 19 1 4 3 -2 6 -13 5 -11 0 -14 -3 -6 -6z"/>
<path d="M5878 583 c7 -3 16 -2 19 1 4 3 -2 6 -13 5 -11 0 -14 -3 -6 -6z"/>
<path d="M5798 343 c7 -3 16 -2 19 1 4 3 -2 6 -13 5 -11 0 -14 -3 -6 -6z"/>
</g>
</svg>
